<svg xmlns="http://www.w3.org/2000/svg" viewBox="0 0 128 128">
  <defs>
    <linearGradient id="grad" x1="0%" y1="0%" x2="100%" y2="100%">
      <stop offset="0%" stop-color="#00CECB" />
      <stop offset="50%" stop-color="#FFED66" />
      <stop offset="100%" stop-color="#FF5E5B" />
    </linearGradient>
  </defs>
  <rect width="128" height="128" rx="28" fill="#020617" />
  <path
    d="M64 20c-12 14-24 30-24 44 0 16 11 28 24 28s24-12 24-28c0-14-12-30-24-44Zm0 96c-18 0-32-14-32-36 0-18 14-38 28-55.5a8 8 0 0 1 12 0C82 42 96 62 96 80c0 22-14 36-32 36Z"
    fill="url(#grad)"
  />
  <circle cx="64" cy="80" r="14" fill="#0F172A" opacity="0.85" />
  <circle cx="64" cy="80" r="8" fill="url(#grad)" />
</svg>
